<svg width="512" height="512" viewBox="0 0 512 512" fill="none" xmlns="http://www.w3.org/2000/svg">
  <!-- Maskable: full bleed background, content scaled to safe zone (inner 80%) -->
  <rect width="512" height="512" fill="#1E293B"/>

  <g transform="translate(256,256) scale(0.72) translate(-256,-256)">
    <path d="M512 256H0M256 0V512" stroke="#334155" stroke-width="2" stroke-opacity="0.3"/>
    <circle cx="256" cy="256" r="180" stroke="#334155" stroke-width="2" stroke-opacity="0.3"/>

    <g transform="rotate(10 256 256)">
      <rect x="136" y="116" width="240" height="280" rx="20" fill="#F59E0B" stroke="#B45309" stroke-width="4"/>
    </g>

    <rect x="136" y="116" width="240" height="280" rx="20" fill="url(#paint0_linear)" stroke="#38BDF8" stroke-width="4"/>

    <path d="M256 180C230 180 210 200 210 220C210 225 212 230 215 235C200 235 190 250 190 265C190 285 210 300 230 300H280C300 300 320 285 320 265C320 250 310 235 295 235C298 230 300 225 300 220C300 200 280 180 256 180Z" fill="white"/>
    <path d="M256 265V275M256 225C265 225 270 230 270 235C270 245 256 245 256 255" stroke="#38BDF8" stroke-width="8" stroke-linecap="round" stroke-linejoin="round"/>
  </g>

  <defs>
    <linearGradient id="paint0_linear" x1="136" y1="116" x2="376" y2="396" gradientUnits="userSpaceOnUse">
      <stop stop-color="#0EA5E9"/>
      <stop offset="1" stop-color="#0284C7"/>
    </linearGradient>
  </defs>
</svg>
